<svg width="54" height="41" viewBox="0 0 54 41" fill="none" xmlns="http://www.w3.org/2000/svg">
<path opacity="0.1" d="M15.49 40.88C12.7033 40.88 10.3383 40.2933 8.395 39.12C6.45167 37.91 4.89333 36.3333 3.72 34.39C2.54667 32.41 1.685 30.2467 1.135 27.9C0.621667 25.5533 0.365 23.225 0.365 20.915C0.365 18.605 0.676667 16.2583 1.3 13.875C1.96 11.4917 2.93167 9.31 4.215 7.33C5.49833 5.31333 7.09333 3.7 9 2.49C10.9067 1.24333 13.1433 0.619999 15.71 0.619999C18.3867 0.619999 20.66 1.225 22.53 2.435C24.4367 3.645 25.9767 5.24 27.15 7.22C28.3233 9.16333 29.185 11.3083 29.735 13.655C30.285 16.0017 30.56 18.33 30.56 20.64C30.56 22.9133 30.2483 25.2417 29.625 27.625C29.0383 30.0083 28.1217 32.2083 26.875 34.225C25.6283 36.205 24.0517 37.8183 22.145 39.065C20.275 40.275 18.0567 40.88 15.49 40.88ZM15.82 36.975C17.1033 36.975 18.1667 36.5717 19.01 35.765C19.8533 34.9583 20.495 33.8583 20.935 32.465C21.4117 31.035 21.7417 29.4033 21.925 27.57C22.1083 25.7367 22.2 23.8117 22.2 21.795C22.2 19.5583 22.1083 17.4133 21.925 15.36C21.7783 13.27 21.4667 11.4183 20.99 9.805C20.55 8.155 19.89 6.85333 19.01 5.9C18.1667 4.94667 17.03 4.47 15.6 4.47C14.28 4.47 13.18 4.87333 12.3 5.68C11.42 6.48666 10.705 7.605 10.155 9.035C9.64167 10.465 9.275 12.0967 9.055 13.93C8.835 15.7633 8.725 17.7067 8.725 19.76C8.725 21.3 8.76167 22.8767 8.835 24.49C8.945 26.1033 9.12833 27.6617 9.385 29.165C9.67833 30.6317 10.0817 31.9517 10.595 33.125C11.1083 34.2983 11.7867 35.2333 12.63 35.93C13.51 36.6267 14.5733 36.975 15.82 36.975ZM37.3658 40V36.37C38.2092 36.3333 38.9058 36.2233 39.4558 36.04C40.0425 35.8567 40.4825 35.435 40.7758 34.775C41.1058 34.115 41.2708 33.0517 41.2708 31.585V9.53L35.2758 13.105L33.2958 9.805L45.8908 0.619999H49.1908V30.98C49.1908 31.97 49.1725 32.9233 49.1358 33.84C49.1358 34.7567 49.0992 35.4533 49.0258 35.93C49.6125 35.8567 50.3458 35.82 51.2258 35.82C52.1425 35.7833 52.7842 35.765 53.1508 35.765V40H37.3658Z" fill="black"/>
</svg>
