<svg width="60" height="41" viewBox="0 0 60 41" fill="none" xmlns="http://www.w3.org/2000/svg">
<path opacity="0.1" d="M15.49 40.88C12.7033 40.88 10.3383 40.2933 8.395 39.12C6.45167 37.91 4.89333 36.3333 3.72 34.39C2.54667 32.41 1.685 30.2467 1.135 27.9C0.621667 25.5533 0.365 23.225 0.365 20.915C0.365 18.605 0.676667 16.2583 1.3 13.875C1.96 11.4917 2.93167 9.31 4.215 7.33C5.49833 5.31333 7.09333 3.7 9 2.49C10.9067 1.24333 13.1433 0.619999 15.71 0.619999C18.3867 0.619999 20.66 1.225 22.53 2.435C24.4367 3.645 25.9767 5.24 27.15 7.22C28.3233 9.16333 29.185 11.3083 29.735 13.655C30.285 16.0017 30.56 18.33 30.56 20.64C30.56 22.9133 30.2483 25.2417 29.625 27.625C29.0383 30.0083 28.1217 32.2083 26.875 34.225C25.6283 36.205 24.0517 37.8183 22.145 39.065C20.275 40.275 18.0567 40.88 15.49 40.88ZM15.82 36.975C17.1033 36.975 18.1667 36.5717 19.01 35.765C19.8533 34.9583 20.495 33.8583 20.935 32.465C21.4117 31.035 21.7417 29.4033 21.925 27.57C22.1083 25.7367 22.2 23.8117 22.2 21.795C22.2 19.5583 22.1083 17.4133 21.925 15.36C21.7783 13.27 21.4667 11.4183 20.99 9.805C20.55 8.155 19.89 6.85333 19.01 5.9C18.1667 4.94667 17.03 4.47 15.6 4.47C14.28 4.47 13.18 4.87333 12.3 5.68C11.42 6.48666 10.705 7.605 10.155 9.035C9.64167 10.465 9.275 12.0967 9.055 13.93C8.835 15.7633 8.725 17.7067 8.725 19.76C8.725 21.3 8.76167 22.8767 8.835 24.49C8.945 26.1033 9.12833 27.6617 9.385 29.165C9.67833 30.6317 10.0817 31.9517 10.595 33.125C11.1083 34.2983 11.7867 35.2333 12.63 35.93C13.51 36.6267 14.5733 36.975 15.82 36.975ZM35.1108 40C35.1108 38.0933 35.3492 36.3883 35.8258 34.885C36.3392 33.3817 36.9992 32.025 37.8058 30.815C38.6492 29.605 39.5658 28.4867 40.5558 27.46C41.5825 26.4333 42.6275 25.425 43.6908 24.435C46.3675 21.9417 48.2558 19.6867 49.3558 17.67C50.4925 15.6533 51.0608 13.655 51.0608 11.675C51.0608 10.5017 50.9142 9.365 50.6208 8.265C50.3275 7.165 49.7958 6.26666 49.0258 5.57C48.2558 4.83666 47.1742 4.48833 45.7808 4.525C44.7908 4.525 43.8925 4.76333 43.0858 5.24C42.3158 5.68 41.7292 6.21167 41.3258 6.835C41.7292 7.23833 42.0042 7.715 42.1508 8.265C42.3342 8.815 42.4258 9.29167 42.4258 9.695C42.4258 10.0983 42.2975 10.5933 42.0408 11.18C41.7842 11.73 41.3808 12.2067 40.8308 12.61C40.3175 13.0133 39.6025 13.215 38.6858 13.215C37.5492 13.1417 36.6692 12.72 36.0458 11.95C35.4592 11.18 35.1658 10.2633 35.1658 9.2C35.1658 8.35667 35.4225 7.45833 35.9358 6.505C36.4492 5.515 37.2192 4.58 38.2458 3.7C39.2725 2.78333 40.5192 2.05 41.9858 1.5C43.4892 0.913332 45.2125 0.619999 47.1558 0.619999C48.6225 0.619999 50.0708 0.803332 51.5008 1.17C52.9675 1.53666 54.3058 2.12333 55.5158 2.93C56.7258 3.73667 57.6792 4.8 58.3758 6.12C59.1092 7.44 59.4758 9.07166 59.4758 11.015C59.4758 11.9317 59.3108 12.9033 58.9808 13.93C58.6508 14.92 58.0458 16.02 57.1658 17.23C56.2858 18.4033 55.0575 19.76 53.4808 21.3C51.9042 22.84 49.8692 24.6367 47.3758 26.69C45.3592 28.34 43.8742 29.8433 42.9208 31.2C41.9675 32.5567 41.3992 33.6017 41.2158 34.335L51.9958 34.61C52.8392 34.6467 53.5542 34.5917 54.1408 34.445C54.7642 34.2617 55.2408 33.9133 55.5708 33.4C55.9375 32.85 56.1208 32.0617 56.1208 31.035H59.6408L59.2008 40H35.1108Z" fill="black"/>
</svg>
