<svg width="62" height="41" viewBox="0 0 62 41" fill="none" xmlns="http://www.w3.org/2000/svg">
<path opacity="0.1" d="M15.49 40.88C12.7033 40.88 10.3383 40.2933 8.395 39.12C6.45167 37.91 4.89333 36.3333 3.72 34.39C2.54667 32.41 1.685 30.2467 1.135 27.9C0.621667 25.5533 0.365 23.225 0.365 20.915C0.365 18.605 0.676667 16.2583 1.3 13.875C1.96 11.4917 2.93167 9.31 4.215 7.33C5.49833 5.31333 7.09333 3.7 9 2.49C10.9067 1.24333 13.1433 0.619999 15.71 0.619999C18.3867 0.619999 20.66 1.225 22.53 2.435C24.4367 3.645 25.9767 5.24 27.15 7.22C28.3233 9.16333 29.185 11.3083 29.735 13.655C30.285 16.0017 30.56 18.33 30.56 20.64C30.56 22.9133 30.2483 25.2417 29.625 27.625C29.0383 30.0083 28.1217 32.2083 26.875 34.225C25.6283 36.205 24.0517 37.8183 22.145 39.065C20.275 40.275 18.0567 40.88 15.49 40.88ZM15.82 36.975C17.5433 36.975 18.8633 36.2783 19.78 34.885C20.6967 33.455 21.32 31.585 21.65 29.275C22.0167 26.965 22.2 24.4717 22.2 21.795C22.2 19.5583 22.1083 17.4133 21.925 15.36C21.7783 13.27 21.4667 11.4183 20.99 9.805C20.55 8.155 19.89 6.85333 19.01 5.9C18.1667 4.94667 17.03 4.47 15.6 4.47C13.84 4.47 12.465 5.185 11.475 6.615C10.485 8.00833 9.77 9.86 9.33 12.17C8.92667 14.48 8.725 17.01 8.725 19.76C8.725 21.6667 8.79833 23.6283 8.945 25.645C9.09167 27.6617 9.40333 29.5317 9.88 31.255C10.3567 32.9417 11.0717 34.3167 12.025 35.38C12.9783 36.4433 14.2433 36.975 15.82 36.975ZM46.8258 40.88C44.0758 40.88 41.8208 40.4767 40.0608 39.67C38.3008 38.8267 36.9992 37.7817 36.1558 36.535C35.3125 35.2883 34.8908 34.0417 34.8908 32.795C34.8908 31.695 35.2208 30.7417 35.8808 29.935C36.5775 29.0917 37.4942 28.6517 38.6308 28.615C39.5475 28.5783 40.2625 28.7617 40.7758 29.165C41.2892 29.5683 41.6558 30.045 41.8758 30.595C42.0958 31.145 42.2058 31.6583 42.2058 32.135C42.2058 32.5017 42.1325 32.9233 41.9858 33.4C41.8392 33.84 41.6192 34.2617 41.3258 34.665C41.7292 35.3617 42.3892 35.9117 43.3058 36.315C44.2592 36.6817 45.2492 36.865 46.2758 36.865C48.5858 36.865 50.3275 36.1683 51.5008 34.775C52.6742 33.3817 53.2608 31.6583 53.2608 29.605C53.2608 28.3583 53.0225 27.1117 52.5458 25.865C52.0692 24.6183 51.2442 23.5917 50.0708 22.785C48.8975 21.9417 47.2475 21.5383 45.1208 21.575C44.8642 21.575 44.4058 21.5933 43.7458 21.63C43.0858 21.6667 42.5908 21.7033 42.2608 21.74V17.78C42.5542 17.8167 42.8292 17.835 43.0858 17.835C43.3425 17.835 43.5992 17.835 43.8558 17.835C46.2758 17.835 48.1458 17.1933 49.4658 15.91C50.8225 14.6267 51.5192 12.9767 51.5558 10.96C51.5925 9.05333 51.2075 7.495 50.4008 6.285C49.6308 5.075 48.3108 4.47 46.4408 4.47C45.4508 4.47 44.5525 4.70833 43.7458 5.185C42.9392 5.66167 42.3892 6.19333 42.0958 6.78C42.4258 7.18333 42.6458 7.66 42.7558 8.21C42.9025 8.72333 42.9758 9.145 42.9758 9.475C42.9758 9.915 42.8475 10.4283 42.5908 11.015C42.3708 11.565 41.9858 12.0417 41.4358 12.445C40.8858 12.8483 40.1525 13.0317 39.2358 12.995C38.0992 12.9583 37.2375 12.555 36.6508 11.785C36.0642 11.015 35.7708 10.0983 35.7708 9.035C35.7708 7.935 36.1925 6.725 37.0358 5.405C37.8792 4.085 39.1625 2.96666 40.8858 2.05C42.6092 1.09666 44.7542 0.619999 47.3208 0.619999C49.5942 0.619999 51.6475 0.931665 53.4808 1.555C55.3508 2.17833 56.8175 3.205 57.8808 4.635C58.9808 6.065 59.5308 7.97166 59.5308 10.355C59.5308 11.3083 59.2558 12.39 58.7058 13.6C58.1925 14.7733 57.3308 15.855 56.1208 16.845C54.9108 17.835 53.2975 18.5683 51.2808 19.045C54.8008 19.6683 57.3858 20.9333 59.0358 22.84C60.7225 24.7467 61.5658 26.8733 61.5658 29.22C61.5658 31.7133 60.9242 33.84 59.6408 35.6C58.3942 37.3233 56.6525 38.6433 54.4158 39.56C52.2158 40.44 49.6858 40.88 46.8258 40.88Z" fill="black"/>
</svg>
